<svg width="400" height="400" viewBox="0 0 400 400" fill="none" xmlns="http://www.w3.org/2000/svg">
<g clip-path="url(#clip0_912_131)">
<g clip-path="url(#clip1_912_131)">
<g filter="url(#filter0_f_912_131)">
<ellipse cx="667.871" cy="380.613" rx="667.871" ry="380.613" transform="matrix(0.95417 0.299266 -0.268613 0.963248 -534.524 -214.991)" fill="#6461FC"/>
</g>
<g filter="url(#filter1_f_912_131)">
<path d="M483.445 509.741C-81.8727 428.899 -224.46 82.3929 -422.605 69.9661C-671.687 54.3447 -655.576 366.394 -465.301 505.588C-241.018 669.66 866.552 564.526 483.445 509.741Z" fill="#FEB4C7"/>
</g>
</g>
<g clip-path="url(#clip2_912_131)">
<g filter="url(#filter2_b_912_131)">
<path d="M200 400C310.457 400 400 310.457 400 200C400 89.5431 310.457 0 200 0C89.5431 0 0 89.5431 0 200C0 310.457 89.5431 400 200 400Z" fill="white" fill-opacity="0.2"/>
</g>
<path d="M200 118.75C183.93 118.75 168.221 123.515 154.86 132.443C141.498 141.371 131.084 154.06 124.935 168.907C118.785 183.753 117.176 200.09 120.311 215.851C123.446 231.612 131.185 246.089 142.548 257.452C153.911 268.815 168.388 276.554 184.149 279.689C199.91 282.824 216.247 281.215 231.093 275.065C245.94 268.916 258.629 258.502 267.557 245.14C276.485 231.779 281.25 216.07 281.25 200C281.227 178.458 272.66 157.805 257.427 142.573C242.195 127.34 221.542 118.773 200 118.75ZM215.625 250H206.25V256.25C206.25 257.908 205.592 259.497 204.419 260.669C203.247 261.842 201.658 262.5 200 262.5C198.342 262.5 196.753 261.842 195.581 260.669C194.409 259.497 193.75 257.908 193.75 256.25V250H187.5C180.041 250 172.887 247.037 167.613 241.762C162.338 236.488 159.375 229.334 159.375 221.875C159.375 220.217 160.034 218.628 161.206 217.456C162.378 216.283 163.967 215.625 165.625 215.625C167.283 215.625 168.872 216.283 170.044 217.456C171.217 218.628 171.875 220.217 171.875 221.875C171.875 226.019 173.521 229.993 176.451 232.924C179.382 235.854 183.356 237.5 187.5 237.5H215.625C219.769 237.5 223.743 235.854 226.674 232.924C229.604 229.993 231.25 226.019 231.25 221.875C231.25 217.731 229.604 213.757 226.674 210.826C223.743 207.896 219.769 206.25 215.625 206.25H190.625C183.166 206.25 176.012 203.287 170.738 198.012C165.463 192.738 162.5 185.584 162.5 178.125C162.5 170.666 165.463 163.512 170.738 158.238C176.012 152.963 183.166 150 190.625 150H193.75V143.75C193.75 142.092 194.409 140.503 195.581 139.331C196.753 138.158 198.342 137.5 200 137.5C201.658 137.5 203.247 138.158 204.419 139.331C205.592 140.503 206.25 142.092 206.25 143.75V150H209.375C216.834 150 223.988 152.963 229.262 158.238C234.537 163.512 237.5 170.666 237.5 178.125C237.5 179.783 236.842 181.372 235.669 182.544C234.497 183.717 232.908 184.375 231.25 184.375C229.592 184.375 228.003 183.717 226.831 182.544C225.659 181.372 225 179.783 225 178.125C225 173.981 223.354 170.007 220.424 167.076C217.493 164.146 213.519 162.5 209.375 162.5H190.625C186.481 162.5 182.507 164.146 179.576 167.076C176.646 170.007 175 173.981 175 178.125C175 182.269 176.646 186.243 179.576 189.174C182.507 192.104 186.481 193.75 190.625 193.75H215.625C223.084 193.75 230.238 196.713 235.512 201.988C240.787 207.262 243.75 214.416 243.75 221.875C243.75 229.334 240.787 236.488 235.512 241.762C230.238 247.037 223.084 250 215.625 250Z" fill="white"/>
</g>
</g>
<defs>
<filter id="filter0_f_912_131" x="-1065.01" y="-486.142" width="2131.01" height="1675.29" filterUnits="userSpaceOnUse" color-interpolation-filters="sRGB">
<feFlood flood-opacity="0" result="BackgroundImageFix"/>
<feBlend mode="normal" in="SourceGraphic" in2="BackgroundImageFix" result="shape"/>
<feGaussianBlur stdDeviation="210" result="effect1_foregroundBlur_912_131"/>
</filter>
<filter id="filter1_f_912_131" x="-928.863" y="-250.599" width="1812.17" height="1164.31" filterUnits="userSpaceOnUse" color-interpolation-filters="sRGB">
<feFlood flood-opacity="0" result="BackgroundImageFix"/>
<feBlend mode="normal" in="SourceGraphic" in2="BackgroundImageFix" result="shape"/>
<feGaussianBlur stdDeviation="160" result="effect1_foregroundBlur_912_131"/>
</filter>
<filter id="filter2_b_912_131" x="-56" y="-56" width="512" height="512" filterUnits="userSpaceOnUse" color-interpolation-filters="sRGB">
<feFlood flood-opacity="0" result="BackgroundImageFix"/>
<feGaussianBlur in="BackgroundImageFix" stdDeviation="28"/>
<feComposite in2="SourceAlpha" operator="in" result="effect1_backgroundBlur_912_131"/>
<feBlend mode="normal" in="SourceGraphic" in2="effect1_backgroundBlur_912_131" result="shape"/>
</filter>
<clipPath id="clip0_912_131">
<path d="M0 200C0 89.5431 89.5431 0 200 0V0C310.457 0 400 89.5431 400 200V200C400 310.457 310.457 400 200 400V400C89.5431 400 0 310.457 0 200V200Z" fill="white"/>
</clipPath>
<clipPath id="clip1_912_131">
<rect width="1479" height="1190" fill="white" transform="translate(-739 -272)"/>
</clipPath>
<clipPath id="clip2_912_131">
<rect width="400" height="400" fill="white"/>
</clipPath>
</defs>
</svg>
